<?xml version="1.0" encoding="utf-8"?>
<!-- Generator: Adobe Illustrator 20.0.0, SVG Export Plug-In . SVG Version: 6.00 Build 0)  -->
<svg version="1.1" xmlns="http://www.w3.org/2000/svg" xmlns:xlink="http://www.w3.org/1999/xlink" x="0px" y="0px" width="48px"
	 height="48px" viewBox="0 0 48 48" enable-background="new 0 0 48 48" xml:space="preserve">
<g id="bkg">
	<path fill="#E44846" d="M44,48H4c-2.2,0-4-1.8-4-4V4c0-2.2,1.8-4,4-4h40c2.2,0,4,1.8,4,4v40C48,46.2,46.2,48,44,48z"/>
</g>
<g id="Layer_2">
	<g>
		<path fill="#EDCACA" d="M18.9,27.7L18,30.5c-0.1,0.3-0.2,0.6-0.3,0.9c-0.1,0.3-0.1,0.7-0.1,0.9c0,0.2,0,0.4,0.1,0.5
			c0.1,0.2,0.2,0.3,0.3,0.4c0.1,0.1,0.3,0.2,0.5,0.2c0.2,0.1,0.4,0.1,0.5,0.1h1.3v1.7h-8.3v-1.7h0.4c0.3,0,0.5,0,0.8-0.1
			s0.5-0.2,0.7-0.4s0.4-0.4,0.6-0.7c0.2-0.3,0.4-0.7,0.6-1.2L22,12.4h4.4L33,31.2c0.2,0.4,0.3,0.8,0.5,1.1s0.4,0.5,0.6,0.7
			s0.4,0.3,0.6,0.4c0.2,0.1,0.5,0.1,0.7,0.1H36v1.7H25.5v-1.7h1.2c0.2,0,0.3,0,0.5-0.1c0.2,0,0.3-0.1,0.4-0.2
			c0.1-0.1,0.2-0.2,0.3-0.4c0.1-0.2,0.1-0.3,0.1-0.6c0-0.3,0-0.5-0.1-0.7c-0.1-0.2-0.1-0.4-0.2-0.6l-1.1-3.2H18.9z M24.4,20.5
			c-0.1-0.4-0.2-0.7-0.4-1.1c-0.1-0.4-0.2-0.8-0.4-1.2c-0.1-0.4-0.2-0.8-0.3-1.2c-0.1-0.4-0.2-0.8-0.3-1.2c-0.1,0.3-0.2,0.7-0.3,1.1
			c-0.1,0.4-0.3,0.8-0.4,1.2s-0.3,0.8-0.4,1.2s-0.3,0.8-0.4,1.2l-1.9,5.4h6.5L24.4,20.5z"/>
	</g>
</g>
</svg>
